<svg width="72" height="18" viewBox="0 0 72 18" fill="none" xmlns="http://www.w3.org/2000/svg">
<path d="M8.54352 8.60252L16.5154 0.0611572H12.276L3.80952 8.9546V0.0611572H0V17.7458H3.80952V13.5763L6.03504 11.2665L11.3364 17.7458H15.8098L9.0828 9.28148L8.54352 8.6018V8.60252Z" fill="#0052FE"/>
<path d="M28.8007 7.92071C27.6156 6.04079 25.4412 4.87799 22.7902 4.87799C19.957 4.87799 17.6566 6.20711 16.5348 8.31311C16.0502 9.21527 15.786 10.2629 15.786 11.4069C15.786 15.2244 18.7423 17.9359 22.7902 17.9359C26.838 17.9359 29.772 15.2244 29.772 11.4069C29.772 10.0915 29.4228 8.90639 28.8007 7.92071ZM22.7902 14.9184C20.9441 14.9184 19.5235 13.5986 19.5235 11.4069C19.5235 9.52199 20.5718 8.28215 22.0399 7.97255C22.2797 7.91999 22.531 7.89407 22.7902 7.89407C22.9723 7.89407 23.1473 7.90559 23.3194 7.93367C24.8955 8.16119 26.0323 9.42911 26.0323 11.4069C26.0323 13.5986 24.637 14.9184 22.7909 14.9184H22.7902Z" fill="#0052FE"/>
<path d="M35.9244 5.06659H32.233V17.7465H35.9244V5.06659Z" fill="#0052FE"/>
<path d="M47.0959 4.87799C45.3679 4.87799 43.8768 5.46839 42.8832 6.55127V5.06663H39.3574V17.7466H43.0481V11.4768C43.0481 10.5552 43.2468 9.82871 43.6003 9.28943C44.136 8.45783 45.0288 8.06111 46.1023 8.06111C47.5531 8.06111 48.4618 8.80487 48.6461 10.4069C48.6698 10.607 48.6814 10.8245 48.6814 11.0534V17.7458H50.7146L52.375 15.4404V10.4889C52.375 6.62183 50.1019 4.87799 47.0959 4.87799Z" fill="#0052FE"/>
<path d="M71.5637 0.000732422L53.4536 17.7466H59.0904L60.745 15.3943L70.1158 2.06137L71.5637 0.000732422Z" fill="url(#paint0_linear_4224_914)"/>
<path d="M66.2256 0.000732422L65.6467 0.805694L56.5582 13.4316L53.4536 17.7466L71.5637 0.000732422H66.2256Z" fill="url(#paint1_linear_4224_914)"/>
<path d="M69.7709 14.6476L69.5369 14.3164C69.3418 14.04 69.0243 13.8758 68.6873 13.8758H64.4271C64.2694 13.8758 64.147 13.9694 64.0887 14.094L71.9633 17.7465L69.7709 14.6476Z" fill="#F69300"/>
<path d="M64.0887 14.094C64.0368 14.2049 64.0361 14.3402 64.1132 14.4583L64.988 15.7896H64.9901L66.2768 17.7466H71.9641L64.0894 14.094H64.0887Z" fill="url(#paint2_linear_4224_914)"/>
<path d="M61.5283 3.28532L60.1798 1.30532L59.2913 0.00140381H53.7271L61.4412 3.79652C61.5924 3.68348 61.6493 3.46316 61.529 3.28532H61.5283Z" fill="url(#paint3_linear_4224_914)"/>
<path d="M53.7264 0.000718506L56.1003 3.42288C56.1104 3.43656 56.1197 3.44808 56.1298 3.46176C56.3264 3.7188 56.6309 3.87072 56.9564 3.87072H61.2188C61.3059 3.87072 61.38 3.84048 61.4412 3.79512L53.7272 0L53.7264 0.000718506Z" fill="#F69300"/>
<defs>
<linearGradient id="paint0_linear_4224_914" x1="67.495" y1="4.76281" x2="60.4786" y2="12.8801" gradientUnits="userSpaceOnUse">
<stop stop-color="#FFAC00"/>
<stop offset="1" stop-color="#FE7801"/>
</linearGradient>
<linearGradient id="paint1_linear_4224_914" x1="53.4536" y1="8.87401" x2="71.5637" y2="8.87401" gradientUnits="userSpaceOnUse">
<stop stop-color="#FFCE00"/>
<stop offset="1" stop-color="#FFB003"/>
</linearGradient>
<linearGradient id="paint2_linear_4224_914" x1="64.052" y1="15.9206" x2="71.9633" y2="15.9206" gradientUnits="userSpaceOnUse">
<stop stop-color="#FE8B01"/>
<stop offset="1" stop-color="#FE7801"/>
</linearGradient>
<linearGradient id="paint3_linear_4224_914" x1="53.7264" y1="1.8986" x2="61.5938" y2="1.8986" gradientUnits="userSpaceOnUse">
<stop stop-color="#FFCE00"/>
<stop offset="1" stop-color="#FFC101"/>
</linearGradient>
</defs>
</svg>
